<svg data-v-423bf9ae="" xmlns="http://www.w3.org/2000/svg" viewBox="0 0 2066 2454" class="iconLeft"><!----><!----><!----><g data-v-423bf9ae="" id="4c597b76-4033-40ac-85eb-aa174de6a0d0" fill="#000000" transform="matrix(5.836575485636349,0,0,5.836575485636349,1815.5686205443205,1181.9334937999133)"><path d="M9.74 12.67L7.75 12.67L6.89 10.21L3.22 10.21L2.37 12.67L0.35 12.67L3.86 3.04L6.24 3.04L9.74 12.67ZM5.20 5.00L5.05 4.53L5.01 4.68L5.01 4.68Q4.94 4.92 4.85 5.24L4.85 5.24L4.85 5.24Q4.75 5.55 3.67 8.70L3.67 8.70L6.44 8.70L5.49 5.93L5.20 5.00ZM17.35 12.67L15.44 12.67L15.44 8.52L15.44 8.52Q15.44 6.58 14.32 6.58L14.32 6.58L14.32 6.58Q13.74 6.58 13.37 7.17L13.37 7.17L13.37 7.17Q13.01 7.77 13.01 8.71L13.01 8.71L13.01 12.67L11.09 12.67L11.09 6.93L11.09 6.93Q11.09 6.34 11.07 5.96L11.07 5.96L11.07 5.96Q11.05 5.58 11.03 5.28L11.03 5.28L12.87 5.28L12.87 5.28Q12.89 5.41 12.92 5.97L12.92 5.97L12.92 5.97Q12.95 6.54 12.95 6.75L12.95 6.75L12.98 6.75L12.98 6.75Q13.34 5.90 13.87 5.52L13.87 5.52L13.87 5.52Q14.40 5.13 15.13 5.13L15.13 5.13L15.13 5.13Q16.83 5.13 17.19 6.75L17.19 6.75L17.23 6.75L17.23 6.75Q17.61 5.89 18.14 5.51L18.14 5.51L18.14 5.51Q18.66 5.13 19.48 5.13L19.48 5.13L19.48 5.13Q20.56 5.13 21.12 5.87L21.12 5.87L21.12 5.87Q21.69 6.60 21.69 7.98L21.69 7.98L21.69 12.67L19.78 12.67L19.78 8.52L19.78 8.52Q19.78 6.58 18.66 6.58L18.66 6.58L18.66 6.58Q18.10 6.58 17.74 7.12L17.74 7.12L17.74 7.12Q17.38 7.66 17.35 8.62L17.35 8.62L17.35 12.67ZM25.46 3.94L23.54 3.94L23.54 2.53L25.46 2.53L25.46 3.94ZM25.46 12.67L23.54 12.67L23.54 5.28L25.46 5.28L25.46 12.67ZM34.13 12.67L32.22 12.67L32.22 8.52L32.22 8.52Q32.22 6.58 30.90 6.58L30.90 6.58L30.90 6.58Q30.20 6.58 29.77 7.17L29.77 7.17L29.77 7.17Q29.35 7.77 29.35 8.71L29.35 8.71L29.35 12.67L27.43 12.67L27.43 6.93L27.43 6.93Q27.43 6.34 27.41 5.96L27.41 5.96L27.41 5.96Q27.39 5.58 27.37 5.28L27.37 5.28L29.20 5.28L29.20 5.28Q29.22 5.41 29.26 5.97L29.26 5.97L29.26 5.97Q29.29 6.54 29.29 6.75L29.29 6.75L29.32 6.75L29.32 6.75Q29.71 5.90 30.30 5.52L30.30 5.52L30.30 5.52Q30.88 5.13 31.70 5.13L31.70 5.13L31.70 5.13Q32.87 5.13 33.50 5.86L33.50 5.86L33.50 5.86Q34.13 6.58 34.13 7.98L34.13 7.98L34.13 12.67ZM37.69 12.81L37.69 12.81L37.69 12.81Q36.61 12.81 36.01 12.23L36.01 12.23L36.01 12.23Q35.41 11.64 35.41 10.58L35.41 10.58L35.41 10.58Q35.41 9.43 36.16 8.83L36.16 8.83L36.16 8.83Q36.91 8.23 38.33 8.22L38.33 8.22L39.92 8.19L39.92 7.81L39.92 7.81Q39.92 7.09 39.67 6.74L39.67 6.74L39.67 6.74Q39.42 6.38 38.84 6.38L38.84 6.38L38.84 6.38Q38.31 6.38 38.06 6.63L38.06 6.63L38.06 6.63Q37.81 6.87 37.75 7.43L37.75 7.43L35.75 7.33L35.75 7.33Q35.93 6.25 36.73 5.70L36.73 5.70L36.73 5.70Q37.54 5.14 38.92 5.14L38.92 5.14L38.92 5.14Q40.33 5.14 41.08 5.83L41.08 5.83L41.08 5.83Q41.84 6.52 41.84 7.79L41.84 7.79L41.84 10.49L41.84 10.49Q41.84 11.11 41.98 11.34L41.98 11.34L41.98 11.34Q42.12 11.58 42.45 11.58L42.45 11.58L42.45 11.58Q42.67 11.58 42.88 11.54L42.88 11.54L42.88 12.58L42.88 12.58Q42.70 12.62 42.57 12.65L42.57 12.65L42.57 12.65Q42.43 12.69 42.29 12.71L42.29 12.71L42.29 12.71Q42.16 12.73 42.00 12.74L42.00 12.74L42.00 12.74Q41.85 12.76 41.64 12.76L41.64 12.76L41.64 12.76Q40.92 12.76 40.57 12.40L40.57 12.40L40.57 12.40Q40.23 12.04 40.16 11.35L40.16 11.35L40.12 11.35L40.12 11.35Q39.31 12.81 37.69 12.81ZM39.92 9.63L39.92 9.25L38.94 9.26L38.94 9.26Q38.27 9.29 37.99 9.41L37.99 9.41L37.99 9.41Q37.71 9.53 37.56 9.78L37.56 9.78L37.56 9.78Q37.41 10.02 37.41 10.43L37.41 10.43L37.41 10.43Q37.41 10.96 37.66 11.21L37.66 11.21L37.66 11.21Q37.90 11.47 38.30 11.47L38.30 11.47L38.30 11.47Q38.75 11.47 39.13 11.22L39.13 11.22L39.13 11.22Q39.50 10.98 39.71 10.54L39.71 10.54L39.71 10.54Q39.92 10.11 39.92 9.63L39.92 9.63Z"></path></g><!----><g data-v-423bf9ae="" id="4e216753-c527-4f93-bd55-ef84201a1301" transform="matrix(5.221111043294271,0,0,5.221111043294271,-180.62536569006443,-845.9421648288303)" stroke="none" fill="#646464"><path d="M160 240.3c-5.4 0-9.8-4.4-9.8-9.8V189c0-5.4 4.4-9.8 9.8-9.8s9.8 4.4 9.8 9.8v41.5c0 5.4-4.3 9.8-9.8 9.8zM120.9 269.7c-5.4 0-9.8-4.4-9.8-9.8v-75.4c0-5.4 4.4-9.8 9.8-9.8s9.8 4.4 9.8 9.8v75.4c0 5.4-4.4 9.8-9.8 9.8zM81.7 240.3c-5.4 0-9.8-4.4-9.8-9.8V189c0-5.4 4.4-9.8 9.8-9.8s9.8 4.4 9.8 9.8v41.5c0 5.4-4.4 9.8-9.8 9.8z"></path><path d="M164.9 387.2H76.8c-3.7 0-7.1-2.1-8.7-5.4-14.9-29.3-24.9-60.6-29.8-93-4.5-29.5-4.7-59.4-.5-89 .5-3.3 2.5-6.1 5.5-7.5 24.8-11.8 52.4-17.9 79.7-17.6 26 .3 52.1 6.4 75.6 17.6 3 1.4 5 4.2 5.5 7.5 4.1 29.6 4 59.5-.5 89-4.9 32.4-15 63.7-29.8 93-1.8 3.3-5.2 5.4-8.9 5.4zm-82-19.6h76c12.5-25.9 21-53.4 25.3-81.8 3.9-25.8 4.3-52.1 1.2-78.1-19.7-8.6-41.2-13.3-62.6-13.5-22.7-.3-45.5 4.4-66.3 13.5-3.2 26-2.8 52.2 1.2 78.1 4.2 28.4 12.7 55.9 25.2 81.8zM155.5 504.7H86.2c-5.4 0-9.8-4.4-9.8-9.8s4.4-9.8 9.8-9.8h69.3c5.4 0 9.8 4.4 9.8 9.8s-4.4 9.8-9.8 9.8zM152.4 543.9H89.3c-5.4 0-9.8-4.4-9.8-9.8s4.4-9.8 9.8-9.8h63.1c5.4 0 9.8 4.4 9.8 9.8s-4.4 9.8-9.8 9.8z"></path><path d="M120.9 632c-18.8 0-34.7-14.7-36.2-33.4L67 378.2c-.2-2.7.7-5.4 2.6-7.4 1.9-2 4.5-3.2 7.2-3.2h88.1c2.7 0 5.3 1.1 7.2 3.2s2.8 4.7 2.6 7.4l-17.6 220.4c-1.5 18.7-17.4 33.4-36.2 33.4zM87.4 387.2L104.2 597c.7 8.6 8 15.4 16.7 15.4s16-6.8 16.7-15.4l16.8-209.8h-67zM332.3 614.7c-5.4 0-9.8-4.4-9.8-9.8v-41.5c0-5.4 4.4-9.8 9.8-9.8s9.8 4.4 9.8 9.8v41.5c0 5.4-4.4 9.8-9.8 9.8zM293.1 619.3c-5.4 0-9.8-4.4-9.8-9.8v-75.4c0-5.4 4.4-9.8 9.8-9.8s9.8 4.4 9.8 9.8v75.4c0 5.4-4.4 9.8-9.8 9.8zM254 614.7c-5.4 0-9.8-4.4-9.8-9.8v-41.5c0-5.4 4.4-9.8 9.8-9.8s9.8 4.4 9.8 9.8v41.5c-.1 5.4-4.4 9.8-9.8 9.8z"></path><path d="M293.2 619.3c-26.7 0-53.5-6.1-77.7-17.6-3-1.4-5-4.2-5.5-7.5-4.1-29.6-4-59.5.5-89 4.9-32.4 15-63.7 29.8-93 1.7-3.3 5-5.4 8.7-5.4h88.1c3.7 0 7.1 2.1 8.7 5.4 14.9 29.3 24.9 60.6 29.8 93 4.5 29.5 4.6 59.4.5 89-.5 3.3-2.5 6.1-5.5 7.5-23.5 11.2-49.6 17.3-75.6 17.6h-1.8zm-64.5-33.1c20.8 9.1 43.6 13.7 66.3 13.5 21.4-.2 42.9-4.9 62.6-13.5 3.2-26 2.8-52.2-1.2-78.1-4.3-28.4-12.8-55.9-25.3-81.8h-76c-12.5 25.9-21 53.4-25.3 81.8-3.9 25.9-4.3 52.1-1.1 78.1zM327.8 308.9h-69.3c-5.4 0-9.8-4.4-9.8-9.8s4.4-9.8 9.8-9.8h69.3c5.4 0 9.8 4.4 9.8 9.8s-4.4 9.8-9.8 9.8zM324.7 269.7h-63.1c-5.4 0-9.8-4.4-9.8-9.8s4.4-9.8 9.8-9.8h63.1c5.4 0 9.8 4.4 9.8 9.8-.1 5.4-4.4 9.8-9.8 9.8z"></path><path d="M337.2 426.4h-88.1c-2.7 0-5.3-1.1-7.2-3.1-1.9-2-2.8-4.7-2.6-7.4l17.6-220.4c1.5-18.7 17.4-33.4 36.2-33.4s34.7 14.7 36.2 33.4L347 415.8c.2 2.7-.7 5.4-2.6 7.4-1.9 2-4.5 3.2-7.2 3.2zm-77.5-19.6h66.9L309.8 197c-.7-8.6-8-15.4-16.7-15.4s-16 6.8-16.7 15.4l-16.7 209.8z"></path></g><!----></svg>