<svg data-v-423bf9ae="" xmlns="http://www.w3.org/2000/svg" viewBox="0 0 248.22957054415653 60" class="font"><!----><!----><!----><g data-v-423bf9ae="" id="e21eabbf-8345-4e61-a2a5-53dd0bdc0964" fill="black" transform="matrix(5.836575485636349,0,0,5.836575485636349,-2.0427991334137374,-14.766535573255624)"><path d="M9.74 12.67L7.75 12.67L6.89 10.21L3.22 10.21L2.37 12.67L0.35 12.67L3.86 3.04L6.24 3.04L9.74 12.67ZM5.20 5.00L5.05 4.53L5.01 4.68L5.01 4.68Q4.94 4.92 4.85 5.24L4.85 5.24L4.85 5.24Q4.75 5.55 3.67 8.70L3.67 8.70L6.44 8.70L5.49 5.93L5.20 5.00ZM17.35 12.67L15.44 12.67L15.44 8.52L15.44 8.52Q15.44 6.58 14.32 6.58L14.32 6.58L14.32 6.58Q13.74 6.58 13.37 7.17L13.37 7.17L13.37 7.17Q13.01 7.77 13.01 8.71L13.01 8.71L13.01 12.67L11.09 12.67L11.09 6.93L11.09 6.93Q11.09 6.34 11.07 5.96L11.07 5.96L11.07 5.96Q11.05 5.58 11.03 5.28L11.03 5.28L12.87 5.28L12.87 5.28Q12.89 5.41 12.92 5.97L12.92 5.97L12.92 5.97Q12.95 6.54 12.95 6.75L12.95 6.75L12.98 6.75L12.98 6.75Q13.34 5.90 13.87 5.52L13.87 5.52L13.87 5.52Q14.40 5.13 15.13 5.13L15.13 5.13L15.13 5.13Q16.83 5.13 17.19 6.75L17.19 6.75L17.23 6.75L17.23 6.75Q17.61 5.89 18.14 5.51L18.14 5.51L18.14 5.51Q18.66 5.13 19.48 5.13L19.48 5.13L19.48 5.13Q20.56 5.13 21.12 5.87L21.12 5.87L21.12 5.87Q21.69 6.60 21.69 7.98L21.69 7.98L21.69 12.67L19.78 12.67L19.78 8.52L19.78 8.52Q19.78 6.58 18.66 6.58L18.66 6.58L18.66 6.58Q18.10 6.58 17.74 7.12L17.74 7.12L17.74 7.12Q17.38 7.66 17.35 8.62L17.35 8.62L17.35 12.67ZM25.46 3.94L23.54 3.94L23.54 2.53L25.46 2.53L25.46 3.94ZM25.46 12.67L23.54 12.67L23.54 5.28L25.46 5.28L25.46 12.67ZM34.13 12.67L32.22 12.67L32.22 8.52L32.22 8.52Q32.22 6.58 30.90 6.58L30.90 6.58L30.90 6.58Q30.20 6.58 29.77 7.17L29.77 7.17L29.77 7.17Q29.35 7.77 29.35 8.71L29.35 8.71L29.35 12.67L27.43 12.67L27.43 6.93L27.43 6.93Q27.43 6.34 27.41 5.96L27.41 5.96L27.41 5.96Q27.39 5.58 27.37 5.28L27.37 5.28L29.20 5.28L29.20 5.28Q29.22 5.41 29.26 5.97L29.26 5.97L29.26 5.97Q29.29 6.54 29.29 6.75L29.29 6.75L29.32 6.75L29.32 6.75Q29.71 5.90 30.30 5.52L30.30 5.52L30.30 5.52Q30.88 5.13 31.70 5.13L31.70 5.13L31.70 5.13Q32.87 5.13 33.50 5.86L33.50 5.86L33.50 5.86Q34.13 6.58 34.13 7.98L34.13 7.98L34.13 12.67ZM37.69 12.81L37.69 12.81L37.69 12.81Q36.61 12.81 36.01 12.23L36.01 12.23L36.01 12.23Q35.41 11.64 35.41 10.58L35.41 10.58L35.41 10.58Q35.41 9.43 36.16 8.83L36.16 8.83L36.16 8.83Q36.91 8.23 38.33 8.22L38.33 8.22L39.92 8.19L39.92 7.81L39.92 7.81Q39.92 7.09 39.67 6.74L39.67 6.74L39.67 6.74Q39.42 6.38 38.84 6.38L38.84 6.38L38.84 6.38Q38.31 6.38 38.06 6.63L38.06 6.63L38.06 6.63Q37.81 6.87 37.75 7.43L37.75 7.43L35.75 7.33L35.75 7.33Q35.93 6.25 36.73 5.70L36.73 5.70L36.73 5.70Q37.54 5.14 38.92 5.14L38.92 5.14L38.92 5.14Q40.33 5.14 41.08 5.83L41.08 5.83L41.08 5.83Q41.84 6.52 41.84 7.79L41.84 7.79L41.84 10.49L41.84 10.49Q41.84 11.11 41.98 11.34L41.98 11.34L41.98 11.34Q42.12 11.58 42.45 11.58L42.45 11.58L42.45 11.58Q42.67 11.58 42.88 11.54L42.88 11.54L42.88 12.58L42.88 12.58Q42.70 12.62 42.57 12.65L42.57 12.65L42.57 12.65Q42.43 12.69 42.29 12.71L42.29 12.71L42.29 12.71Q42.16 12.73 42.00 12.74L42.00 12.74L42.00 12.74Q41.85 12.76 41.64 12.76L41.64 12.76L41.64 12.76Q40.92 12.76 40.57 12.40L40.57 12.40L40.57 12.40Q40.23 12.04 40.16 11.35L40.16 11.35L40.12 11.35L40.12 11.35Q39.31 12.81 37.69 12.81ZM39.92 9.63L39.92 9.25L38.94 9.26L38.94 9.26Q38.27 9.29 37.99 9.41L37.99 9.41L37.99 9.41Q37.71 9.53 37.56 9.78L37.56 9.78L37.56 9.78Q37.41 10.02 37.41 10.43L37.41 10.43L37.41 10.43Q37.41 10.96 37.66 11.21L37.66 11.21L37.66 11.21Q37.90 11.47 38.30 11.47L38.30 11.47L38.30 11.47Q38.75 11.47 39.13 11.22L39.13 11.22L39.13 11.22Q39.50 10.98 39.71 10.54L39.71 10.54L39.71 10.54Q39.92 10.11 39.92 9.63L39.92 9.63Z"></path></g><!----><!----></svg>