<?xml version='1.0' encoding='iso-8859-1'?>
<!DOCTYPE svg PUBLIC '-//W3C//DTD SVG 1.1//EN' 'http://www.w3.org/Graphics/SVG/1.1/DTD/svg11.dtd'>
<svg version="1.1" xmlns="http://www.w3.org/2000/svg" viewBox="0 0 297 297" xmlns:xlink="http://www.w3.org/1999/xlink" enable-background="new 0 0 297 297">
  <path d="m286.841,168.466h-12.943c-0.552-17.346-9.113-33.449-23-43.624 0.003-0.232 0.005-0.464 0.005-0.695 0-31.02-25.236-56.256-56.256-56.256-3.082,0-5.998,1.4-7.926,3.805-1.929,2.405-2.661,5.555-1.99,8.563 2.349,10.549 1.178,18.741-3.583,25.044-9.967,13.193-32.529,14.642-32.726,14.654-1.572,0.081-3.105,0.527-4.476,1.303-17.125,9.686-27.951,27.654-28.572,47.207h-22.95l74.799-108.637c1.528-2.219 2.112-4.955 1.623-7.604-0.489-2.649-2.01-4.996-4.229-6.524l-19.245-13.251c-20.762-14.297-49.284-9.034-63.58,11.728l-73.745,107.104c-14.295,20.763-9.034,49.284 11.728,63.579l19.246,13.252c1.706,1.175 3.718,1.792 5.761,1.792 0.614,0 1.231-0.056 1.843-0.169 2.649-0.489 4.996-2.01 6.524-4.229l22.382-32.507v33.88c0,25.208 20.508,45.716 45.716,45.716h130.037c25.208,0 45.716-20.508 45.716-45.716v-48.256c0-5.611-4.549-10.159-10.159-10.159zm-244.665,37.152l-10.878-7.49c-11.534-7.942-14.457-23.787-6.515-35.322l73.744-107.105c7.941-11.534 23.787-14.459 35.323-6.515l10.877,7.489-102.551,148.943zm110.008-65.609c8.065-0.898 31.877-4.967 45.095-22.355 5.949-7.826 8.939-17.046 8.946-27.533 14.154,4.829 24.36,18.257 24.36,34.025 0,1.484-0.105,3.05-0.313,4.653-0.529,4.098 1.477,8.109 5.075,10.144 10.76,6.085 17.616,17.282 18.226,29.522h-117.856c0.576-11.557 6.723-22.184 16.467-28.456zm124.498,48.775v16.255h-180.833v-16.255h180.833zm-25.398,63.494h-130.037c-14.005,0-25.398-11.393-25.398-25.398v-7.619h180.832v7.619c0.001,14.005-11.393,25.398-25.397,25.398z"/>
</svg>
